<svg xmlns="http://www.w3.org/2000/svg" width="1400" height="700" viewBox="0 0 1400 700"><style>text{font-family:Arial,sans-serif;fill:#102a72}.t{font-size:24px;font-weight:700}.s{font-size:16px}.h{font-size:20px;font-weight:700}.box{stroke-width:3;rx:16}.g{stroke-dasharray:10 8;stroke-width:3;rx:18}</style><rect width="1400" height="700" fill="#fff"/><rect class="g" x="170" y="25" width="970" height="145" fill="#eaf4ff" stroke="#6ea5e8"/><text class="t" x="30" y="92">Agent Core</text><text class="t" x="30" y="122">Layer</text><rect class="box" x="210" y="55" width="255" height="42" fill="#b9d8fa" stroke="#3474cc"/><text class="h" x="263" y="82">RAG Retrieval</text><rect class="box" x="210" y="112" width="255" height="42" fill="#b9d8fa" stroke="#3474cc"/><text class="h" x="252" y="139">Context Aggregation</text><rect class="box" x="520" y="52" width="270" height="110" fill="#8ec0f0" stroke="#3474cc"/><text class="t" x="588" y="100">Agent Core</text><text class="s" x="552" y="130">Intent · Planning · Decision</text><rect class="box" x="845" y="55" width="255" height="42" fill="#b9d8fa" stroke="#3474cc"/><text class="h" x="865" y="82">Tool &amp; Skill Orchestration</text><rect class="box" x="845" y="112" width="255" height="42" fill="#b9d8fa" stroke="#3474cc"/><text class="h" x="872" y="139">External Information Retrieval</text><rect class="g" x="170" y="195" width="970" height="135" fill="#fff7e9" stroke="#e6b343"/><text class="t" x="30" y="255">Spectrum Knowledge</text><text class="t" x="30" y="285">Base Layer</text><rect class="box" x="220" y="225" width="360" height="75" fill="#ffe0a0" stroke="#d69d00"/><text class="h" x="300" y="252">Offline Knowledge Base Build</text><text class="s" x="265" y="280">Ingestion · Parsing · Dual-track Indexing</text><rect class="box" x="700" y="225" width="360" height="75" fill="#ffe0a0" stroke="#d69d00"/><text class="h" x="790" y="252">Online RAG Retrieval</text><text class="s" x="745" y="280">Intent Analysis · Hybrid Retrieval · Citations</text><rect class="g" x="170" y="355" width="970" height="130" fill="#fff4ea" stroke="#eea05f"/><text class="t" x="30" y="415">Domain Skills</text><rect class="box" x="215" y="390" width="250" height="55" fill="#ffc978" stroke="#df8b1b"/><text class="h" x="276" y="424">Frequency Planning</text><rect class="box" x="530" y="390" width="250" height="55" fill="#ffc978" stroke="#df8b1b"/><text class="h" x="584" y="424">Spectrum Construction</text><rect class="box" x="845" y="390" width="250" height="55" fill="#ffc978" stroke="#df8b1b"/><text class="h" x="907" y="424">Spectrum Decision</text><rect class="g" x="170" y="510" width="970" height="150" fill="#f9f1ff" stroke="#a95bd1"/><text class="t" x="30" y="575">Frontend &amp;</text><text class="t" x="30" y="605">Interface Layer</text><text class="t" x="505" y="548">Unified Interaction Entry</text><rect class="box" x="210" y="570" width="210" height="48" fill="#e6c7fb" stroke="#8f34c0"/><text class="h" x="250" y="601">Unified Console</text><rect class="box" x="455" y="570" width="210" height="48" fill="#e6c7fb" stroke="#8f34c0"/><text class="h" x="505" y="601">Knowledge Base</text><rect class="box" x="700" y="570" width="210" height="48" fill="#e6c7fb" stroke="#8f34c0"/><text class="h" x="746" y="601">Skill Workspace</text><rect class="box" x="945" y="570" width="150" height="48" fill="#e6c7fb" stroke="#8f34c0"/><text class="h" x="978" y="601">Feedback</text><rect x="1175" y="25" width="190" height="635" rx="18" fill="#f2faed" stroke="#77a45b" stroke-width="3" stroke-dasharray="10 8"/><text class="t" x="1200" y="62">Memory &amp;</text><text class="t" x="1210" y="91">Evolution</text><g fill="#fff" stroke="#5e8e3f" stroke-width="3"><ellipse cx="1270" cy="170" rx="75" ry="30"/><ellipse cx="1270" cy="300" rx="75" ry="30"/><ellipse cx="1270" cy="430" rx="75" ry="30"/><ellipse cx="1270" cy="560" rx="75" ry="30"/></g><text class="h" x="1205" y="176">Contextual Memory</text><text class="h" x="1218" y="306">Skill Memory</text><text class="h" x="1212" y="436">Domain Memory</text><text class="h" x="1204" y="566">Evolution Memory</text></svg>
